<?xml version="1.0" encoding="UTF-8"?>
<svg id="Logo" xmlns="http://www.w3.org/2000/svg" viewBox="0 0 1724.25 1724.25">
  <defs>
    <style>
      .cls-1 {
        stroke: #fff;
        stroke-miterlimit: 10;
        stroke-width: 3px;
      }

      .cls-1, .cls-2 {
        fill: #fff;
      }

      .cls-2, .cls-3 {
        stroke-width: 0px;
      }

      .cls-3 {
        fill: #ed1c24;
      }
    </style>
  </defs>
  <circle id="Circle" class="cls-3" cx="862.13" cy="862.13" r="862.13"/>
  <g id="Tagline">
    <path class="cls-2" d="m377.17,1409.31c-2.95,0-5.65-.75-8.08-2.26-2.44-1.5-4.38-3.5-5.83-5.99-1.45-2.49-2.17-5.24-2.17-8.25v-3.78c0-.27.14-.41.41-.41h9.19c.22,0,.33.14.33.41v3.78c0,1.8.6,3.35,1.81,4.64,1.2,1.29,2.65,1.93,4.35,1.93s3.15-.66,4.35-1.97c1.2-1.31,1.81-2.84,1.81-4.59,0-2.02-1.31-3.78-3.94-5.25-.88-.49-2.24-1.26-4.1-2.3-1.86-1.04-3.61-2.02-5.25-2.95-3.01-1.75-5.24-3.95-6.69-6.61-1.45-2.65-2.17-5.65-2.17-8.99,0-3.06.74-5.81,2.22-8.25,1.48-2.43,3.43-4.36,5.87-5.79,2.43-1.42,5.07-2.13,7.92-2.13s5.57.73,8,2.17c2.43,1.45,4.38,3.39,5.83,5.83,1.45,2.44,2.17,5.16,2.17,8.17v6.73c0,.22-.11.33-.33.33h-9.19c-.22,0-.33-.11-.33-.33l-.08-6.73c0-1.92-.6-3.47-1.81-4.68-1.2-1.2-2.63-1.81-4.27-1.81s-3.15.64-4.35,1.93c-1.2,1.29-1.81,2.8-1.81,4.55s.38,3.31,1.15,4.51c.77,1.2,2.16,2.35,4.19,3.45.27.16.81.45,1.6.86.79.41,1.65.88,2.58,1.4.93.52,1.76.97,2.5,1.35s1.19.63,1.35.74c2.73,1.53,4.9,3.41,6.48,5.62,1.59,2.22,2.38,4.94,2.38,8.17s-.73,5.92-2.17,8.41c-1.45,2.49-3.39,4.46-5.83,5.91-2.44,1.45-5.13,2.17-8.08,2.17Z"/>
    <path class="cls-2" d="m418.37,1408.49c-.22,0-.36-.14-.41-.41l-9.68-56.38c-.06-.22.03-.33.25-.33h9.19c.22,0,.36.11.41.33l5.25,37.09,5.42-37.09c.05-.22.22-.33.49-.33h7.39c.22,0,.35.11.41.33l5.33,37.09,5.33-37.09c.05-.22.19-.33.41-.33h9.11c.27,0,.38.11.33.33l-9.77,56.38c-.06.11-.19.25-.41.41h-9.93c-.16,0-.3-.14-.41-.41l-4.19-29.46-4.19,29.46c-.06.27-.19.41-.41.41h-9.93Z"/>
    <path class="cls-2" d="m476.22,1408.49c-.22,0-.33-.14-.33-.41l.08-56.38c0-.22.11-.33.33-.33h26.34c.22,0,.33.14.33.41v9.19c0,.22-.11.33-.33.33h-16.82v12.8h16.82c.22,0,.33.11.33.33l.08,9.27c0,.22-.11.33-.33.33h-16.91v14.36h16.91c.22,0,.33.14.33.41v9.36c0,.22-.11.33-.33.33h-26.51Z"/>
    <path class="cls-2" d="m524.15,1408.49c-.22,0-.33-.14-.33-.41l.08-56.38c0-.22.11-.33.33-.33h26.34c.22,0,.33.14.33.41v9.19c0,.22-.11.33-.33.33h-16.82v12.8h16.82c.22,0,.33.11.33.33l.08,9.27c0,.22-.11.33-.33.33h-16.91v14.36h16.91c.22,0,.33.14.33.41v9.36c0,.22-.11.33-.33.33h-26.51Z"/>
    <path class="cls-2" d="m579.95,1408.49c-.22,0-.33-.14-.33-.41v-46.78h-10.67c-.27,0-.41-.14-.41-.41l.08-9.19c0-.22.11-.33.33-.33h31.18c.27,0,.41.11.41.33v9.19c0,.27-.11.41-.33.41h-10.75l.08,46.78c0,.27-.11.41-.33.41h-9.27Z"/>
    <path class="cls-2" d="m657.58,1408.57c-3.23,0-6.06-.79-8.49-2.38-2.44-1.59-4.34-3.58-5.7-5.99-1.37-2.41-2.05-4.81-2.05-7.22v-5.42c0-1.86.44-3.66,1.31-5.42.87-1.75,2.02-3.31,3.45-4.68-1.15-1.26-2.05-2.8-2.71-4.64-.66-1.83-.98-3.87-.98-6.11,0-2.84.67-5.43,2.01-7.75,1.34-2.33,3.15-4.17,5.42-5.54,2.27-1.37,4.8-2.05,7.59-2.05h11.08c.38,0,.57.19.57.57v8.7c0,.33-.16.49-.49.49h-11.16c-1.37,0-2.56.55-3.57,1.64-1.01,1.1-1.52,2.41-1.52,3.94,0,1.86.42,3.31,1.27,4.35.85,1.04,2.12,1.56,3.82,1.56h22.32c.27,0,.41.14.41.41v9.11c0,.22-.11.33-.33.33h-7.22l-.08,25.69c0,.22-.11.33-.33.33l-14.61.08Zm0-9.85l5.33-.08.08-16.17h-5.66c-1.15,0-2.2.29-3.16.86-.96.57-1.71,1.25-2.26,2.01-.55.77-.82,1.51-.82,2.22v5.42c0,.82.26,1.68.78,2.58.52.9,1.27,1.66,2.26,2.26.98.6,2.13.9,3.45.9Z"/>
    <path class="cls-2" d="m737.43,1409.31c-2.95,0-5.65-.75-8.08-2.26-2.44-1.5-4.38-3.5-5.83-5.99-1.45-2.49-2.17-5.24-2.17-8.25v-3.78c0-.27.14-.41.41-.41h9.19c.22,0,.33.14.33.41v3.78c0,1.8.6,3.35,1.81,4.64,1.2,1.29,2.65,1.93,4.35,1.93s3.15-.66,4.35-1.97c1.2-1.31,1.81-2.84,1.81-4.59,0-2.02-1.31-3.78-3.94-5.25-.88-.49-2.24-1.26-4.1-2.3-1.86-1.04-3.61-2.02-5.25-2.95-3.01-1.75-5.24-3.95-6.69-6.61-1.45-2.65-2.17-5.65-2.17-8.99,0-3.06.74-5.81,2.22-8.25,1.48-2.43,3.43-4.36,5.87-5.79,2.43-1.42,5.07-2.13,7.92-2.13s5.57.73,8,2.17c2.43,1.45,4.38,3.39,5.83,5.83,1.45,2.44,2.17,5.16,2.17,8.17v6.73c0,.22-.11.33-.33.33h-9.19c-.22,0-.33-.11-.33-.33l-.08-6.73c0-1.92-.6-3.47-1.81-4.68-1.2-1.2-2.63-1.81-4.27-1.81s-3.15.64-4.35,1.93c-1.2,1.29-1.81,2.8-1.81,4.55s.38,3.31,1.15,4.51c.77,1.2,2.16,2.35,4.19,3.45.27.16.81.45,1.6.86.79.41,1.65.88,2.58,1.4.93.52,1.76.97,2.5,1.35s1.19.63,1.35.74c2.73,1.53,4.9,3.41,6.48,5.62,1.59,2.22,2.38,4.94,2.38,8.17s-.73,5.92-2.17,8.41c-1.45,2.49-3.39,4.46-5.83,5.91-2.44,1.45-5.13,2.17-8.08,2.17Z"/>
    <path class="cls-2" d="m768.29,1408.08l10.18-56.38c.05-.22.19-.33.41-.33h11.9c.22,0,.35.11.41.33l9.77,56.38c.05.27-.06.41-.33.41h-9.11c-.22,0-.36-.14-.41-.41l-.9-5.99h-11.16l-.9,5.99c-.05.27-.19.41-.41.41h-9.11c-.22,0-.33-.14-.33-.41Zm12.39-14.77h7.88l-3.36-23.06-.49-3.04-.33,3.04-3.69,23.06Z"/>
    <path class="cls-2" d="m824.09,1408.49c-.22,0-.36-.14-.41-.41l-11.32-56.38c-.06-.22.05-.33.33-.33h9.27c.22,0,.36.11.41.33l6.73,37.58,6.57-37.58c.05-.22.19-.33.41-.33h9.19c.27,0,.38.11.33.33l-11.16,56.38c-.06.27-.19.41-.41.41h-9.93Z"/>
    <path class="cls-2" d="m877.43,1409.31c-2.96,0-5.65-.75-8.08-2.26-2.43-1.5-4.39-3.5-5.87-5.99-1.48-2.49-2.22-5.24-2.22-8.25l.08-26.01c0-3.01.72-5.74,2.17-8.21,1.45-2.46,3.41-4.43,5.87-5.91s5.14-2.22,8.04-2.22,5.63.74,8.04,2.22c2.41,1.48,4.33,3.45,5.79,5.91,1.45,2.46,2.17,5.2,2.17,8.21l.08,26.01c0,3.01-.73,5.76-2.17,8.25-1.45,2.49-3.39,4.49-5.83,5.99-2.44,1.5-5.13,2.26-8.08,2.26Zm0-9.93c1.64,0,3.08-.67,4.31-2.01,1.23-1.34,1.85-2.86,1.85-4.55l-.08-26.01c0-1.81-.57-3.34-1.72-4.6-1.15-1.26-2.6-1.89-4.35-1.89s-3.15.62-4.35,1.85c-1.2,1.23-1.81,2.78-1.81,4.64v26.01c0,1.8.6,3.35,1.81,4.64,1.2,1.29,2.65,1.93,4.35,1.93Z"/>
    <path class="cls-2" d="m913.54,1408.49c-.22,0-.33-.14-.33-.41l.16-56.38c0-.22.11-.33.33-.33h16.58c2.96,0,5.68.73,8.17,2.17,2.49,1.45,4.47,3.39,5.95,5.83,1.48,2.43,2.22,5.18,2.22,8.25,0,2.02-.3,3.84-.9,5.46-.6,1.62-1.31,2.98-2.13,4.1-.82,1.12-1.56,1.96-2.22,2.5,2.95,3.28,4.43,7.14,4.43,11.57l.08,16.82c0,.27-.14.41-.41.41h-9.27c-.22,0-.33-.08-.33-.25v-16.99c0-1.97-.7-3.68-2.09-5.13-1.4-1.45-3.11-2.17-5.13-2.17h-5.42l-.08,24.13c0,.27-.11.41-.33.41h-9.27Zm9.68-34.38h7.06c1.7,0,3.2-.63,4.51-1.89,1.31-1.26,1.97-2.79,1.97-4.6s-.64-3.25-1.93-4.51c-1.29-1.26-2.8-1.89-4.55-1.89h-7.06v12.88Z"/>
    <path class="cls-2" d="m971.4,1408.49c-.16,0-.25-.11-.25-.33l.08-23.31-11-33.15c-.05-.22.03-.33.25-.33h9.11c.27,0,.44.11.49.33l6.07,22.08,6.16-22.08c.05-.22.19-.33.41-.33h9.19c.22,0,.3.11.25.33l-11.08,32.83.08,23.63c0,.22-.11.33-.33.33h-9.44Z"/>
    <path class="cls-2" d="m1050.75,1409.31c-2.96,0-5.64-.74-8.04-2.22-2.41-1.48-4.34-3.46-5.79-5.95-1.45-2.49-2.17-5.26-2.17-8.33v-26.01c0-2.95.72-5.68,2.17-8.17,1.45-2.49,3.39-4.47,5.83-5.95,2.43-1.48,5.1-2.22,8-2.22s5.73.73,8.17,2.17c2.43,1.45,4.36,3.41,5.79,5.87,1.42,2.46,2.13,5.23,2.13,8.29v3.77c0,.22-.14.33-.41.33h-9.19c-.22,0-.33-.11-.33-.33v-3.12c0-2.08-.59-3.8-1.76-5.17-1.18-1.37-2.64-2.05-4.39-2.05-1.59,0-3,.66-4.23,1.97-1.23,1.31-1.85,2.85-1.85,4.6v26.01c0,1.8.6,3.35,1.81,4.64,1.2,1.29,2.63,1.93,4.27,1.93,1.75,0,3.21-.63,4.39-1.89,1.18-1.26,1.76-2.82,1.76-4.68v-4.02h-5.74c-.27,0-.41-.14-.41-.41v-9.19c0-.27.14-.41.41-.41h15.35c.22,0,.33.14.33.41v13.62c0,3.06-.73,5.84-2.17,8.33-1.45,2.49-3.38,4.47-5.79,5.95-2.41,1.48-5.12,2.22-8.12,2.22Z"/>
    <path class="cls-2" d="m1101.3,1409.31c-2.96,0-5.65-.75-8.08-2.26-2.43-1.5-4.39-3.5-5.87-5.99-1.48-2.49-2.22-5.24-2.22-8.25l.08-26.01c0-3.01.72-5.74,2.17-8.21,1.45-2.46,3.41-4.43,5.87-5.91s5.14-2.22,8.04-2.22,5.63.74,8.04,2.22c2.41,1.48,4.33,3.45,5.79,5.91,1.45,2.46,2.17,5.2,2.17,8.21l.08,26.01c0,3.01-.73,5.76-2.17,8.25-1.45,2.49-3.39,4.49-5.83,5.99-2.44,1.5-5.13,2.26-8.08,2.26Zm0-9.93c1.64,0,3.08-.67,4.31-2.01,1.23-1.34,1.85-2.86,1.85-4.55l-.08-26.01c0-1.81-.57-3.34-1.72-4.6-1.15-1.26-2.6-1.89-4.35-1.89s-3.15.62-4.35,1.85c-1.2,1.23-1.81,2.78-1.81,4.64v26.01c0,1.8.6,3.35,1.81,4.64,1.2,1.29,2.65,1.93,4.35,1.93Z"/>
    <path class="cls-2" d="m1152.26,1409.31c-2.96,0-5.65-.75-8.08-2.26-2.43-1.5-4.39-3.5-5.87-5.99-1.48-2.49-2.22-5.24-2.22-8.25l.08-26.01c0-3.01.72-5.74,2.17-8.21,1.45-2.46,3.41-4.43,5.87-5.91s5.14-2.22,8.04-2.22,5.63.74,8.04,2.22c2.41,1.48,4.33,3.45,5.79,5.91,1.45,2.46,2.17,5.2,2.17,8.21l.08,26.01c0,3.01-.73,5.76-2.17,8.25-1.45,2.49-3.39,4.49-5.83,5.99-2.44,1.5-5.13,2.26-8.08,2.26Zm0-9.93c1.64,0,3.08-.67,4.31-2.01,1.23-1.34,1.85-2.86,1.85-4.55l-.08-26.01c0-1.81-.57-3.34-1.72-4.6-1.15-1.26-2.6-1.89-4.35-1.89s-3.15.62-4.35,1.85c-1.2,1.23-1.81,2.78-1.81,4.64v26.01c0,1.8.6,3.35,1.81,4.64,1.2,1.29,2.65,1.93,4.35,1.93Z"/>
    <path class="cls-2" d="m1188.45,1408.49c-.27,0-.41-.14-.41-.41l.16-56.38c0-.22.11-.33.33-.33l15.35-.08c3.01-.05,5.76.66,8.25,2.13,2.49,1.48,4.47,3.46,5.95,5.95,1.48,2.49,2.22,5.24,2.22,8.25v23.55c0,3.17-.77,6.06-2.3,8.66-1.53,2.6-3.58,4.67-6.16,6.2-2.57,1.53-5.47,2.33-8.7,2.38l-14.69.08Zm9.6-10.09h5.09c2.02,0,3.73-.71,5.13-2.13,1.39-1.42,2.09-3.12,2.09-5.09v-23.63c0-1.75-.64-3.27-1.93-4.55-1.29-1.28-2.8-1.9-4.55-1.85l-5.75.08-.08,37.17Z"/>
    <path class="cls-2" d="m1240.64,1408.49c-.27,0-.41-.14-.41-.41l.08-56.38c0-.22.11-.33.33-.33h9.19c.22,0,.33.11.33.33l.08,56.38c0,.27-.11.41-.33.41h-9.27Z"/>
    <path class="cls-2" d="m1271.25,1408.49c-.22,0-.33-.14-.33-.41l.08-56.38c0-.22.11-.33.33-.33h26.34c.22,0,.33.14.33.41v9.19c0,.22-.11.33-.33.33h-16.82v12.8h16.82c.22,0,.33.11.33.33l.08,9.27c0,.22-.11.33-.33.33h-16.91v14.36h16.91c.22,0,.33.14.33.41v9.36c0,.22-.11.33-.33.33h-26.51Z"/>
    <path class="cls-2" d="m1332.31,1409.31c-2.95,0-5.65-.75-8.08-2.26-2.44-1.5-4.38-3.5-5.83-5.99-1.45-2.49-2.17-5.24-2.17-8.25v-3.78c0-.27.14-.41.41-.41h9.19c.22,0,.33.14.33.41v3.78c0,1.8.6,3.35,1.8,4.64,1.2,1.29,2.65,1.93,4.35,1.93s3.15-.66,4.35-1.97c1.2-1.31,1.81-2.84,1.81-4.59,0-2.02-1.31-3.78-3.94-5.25-.88-.49-2.24-1.26-4.1-2.3-1.86-1.04-3.61-2.02-5.25-2.95-3.01-1.75-5.24-3.95-6.69-6.61-1.45-2.65-2.17-5.65-2.17-8.99,0-3.06.74-5.81,2.21-8.25,1.48-2.43,3.43-4.36,5.87-5.79,2.43-1.42,5.07-2.13,7.92-2.13s5.57.73,8,2.17c2.43,1.45,4.38,3.39,5.83,5.83,1.45,2.44,2.17,5.16,2.17,8.17v6.73c0,.22-.11.33-.33.33h-9.19c-.22,0-.33-.11-.33-.33l-.08-6.73c0-1.92-.6-3.47-1.81-4.68-1.2-1.2-2.63-1.81-4.27-1.81s-3.15.64-4.35,1.93c-1.2,1.29-1.8,2.8-1.8,4.55s.38,3.31,1.15,4.51c.77,1.2,2.16,2.35,4.19,3.45.27.16.81.45,1.6.86.79.41,1.65.88,2.58,1.4.93.52,1.76.97,2.5,1.35.74.38,1.19.63,1.35.74,2.74,1.53,4.9,3.41,6.48,5.62,1.59,2.22,2.38,4.94,2.38,8.17s-.73,5.92-2.17,8.41c-1.45,2.49-3.39,4.46-5.83,5.91-2.43,1.45-5.13,2.17-8.08,2.17Z"/>
  </g>
  <g id="Star">
    <line class="cls-1" x1="877.7" y1="1248.12" x2="846.55" y2="1213.06"/>
    <line class="cls-1" x1="886.9" y1="1206.25" x2="837.35" y2="1255.8"/>
    <line class="cls-1" x1="862.13" y1="1201.12" x2="862.13" y2="1253.66"/>
  </g>
  <g>
    <path class="cls-2" d="m179.79,1195.85v-403.32c0-10.93-1.99-18.75-5.96-23.48-3.98-4.72-11.18-7.08-21.62-7.08-.5-12.92,2.98-23.11,10.44-30.57,7.46-7.46,19.38-11.18,35.78-11.18,16.4,0,28.07,8.2,35.04,24.6,19.38-16.4,39.26-24.6,59.64-24.6,49.2,0,73.81,24.36,73.81,73.06v183.4c0,24.86-8.57,44.24-25.72,58.15-17.15,13.92-40.39,20.87-69.71,20.87h-32.8s0,79.02,0,79.02l2.98,70.08c-16.9,2.48-33.55,3.73-49.95,3.73-7.96,0-11.93-4.22-11.93-12.67Zm99.15-426.44c-13.42,0-26.84,6.71-40.26,20.13v216.94s34.29,0,34.29,0c10.44,0,18.88-2.61,25.35-7.83,6.45-5.22,9.69-12.55,9.69-21.99v-178.92c0-18.88-9.69-28.33-29.08-28.33Z"/>
    <path class="cls-2" d="m397.44,805.08h74.55v303.42c0,10.44,1.86,17.89,5.59,22.37s10.81,6.71,21.25,6.71c.49,12.93-2.87,22.87-10.06,29.82-7.21,6.95-17.78,10.44-31.68,10.44-13.92,0-24.23-4.23-30.94-12.67-6.71-8.45-10.06-22.37-10.06-41.75v-273.6s-23.11,3.73-23.11,3.73c-3.48-12.92-5.22-24.23-5.22-33.92s3.23-14.54,9.69-14.54Zm46.22-67.84c-21.38,0-32.06-14.17-32.06-42.49,0-28.33,10.68-42.49,32.06-42.49,21.36,0,32.06,14.16,32.06,42.49,0,28.33-10.69,42.49-32.06,42.49Z"/>
    <path class="cls-2" d="m512.18,1074.77v-233.35c0-48.7,28.7-73.06,86.11-73.06,57.4,0,86.11,27.34,86.11,82.01,0,21.88-3.98,42.01-11.93,60.39-7.96,18.39-18.89,32.31-32.8,41.75l-71.57,49.2v67.84c0,20.87,9.81,31.31,29.45,31.31,19.63,0,29.45-11.67,29.45-35.04v-17.15l-2.24-35.04c6.45-1.49,13.05-2.24,19.76-2.24s13.05,1,19.01,2.98c11.93,2.98,17.89,8.7,17.89,17.15v53.68c0,19.88-7.83,35.41-23.48,46.59s-36.41,16.77-62.25,16.77c-55.67,0-83.5-24.6-83.5-73.81Zm114.81-226.64c0-9.94-2.98-17.76-8.95-23.48-5.96-5.71-13.42-8.57-22.37-8.57-18.39,0-27.58,7.71-27.58,23.11v106.61s35.78-26.84,35.78-26.84c15.4-11.43,23.11-35.04,23.11-70.82Z"/>
    <path class="cls-2" d="m781.2,774.21v-100.64c0-24.85,8.45-44.23,25.35-58.15,16.89-13.91,39.63-20.87,68.22-20.87,28.57,0,51.31,6.34,68.21,19.01,16.89,12.67,25.35,29.2,25.35,49.58v92.44c0,8.95-6.46,15.17-19.38,18.64-6.97,1.99-13.92,2.98-20.88,2.98s-13.92-.75-20.87-2.24c1.49-11.93,2.24-24.6,2.24-38.02v-63.37c0-9.43-3.24-16.77-9.69-21.99-6.46-5.22-14.91-7.83-25.35-7.83-10.44,0-18.77,2.61-24.97,7.83-6.22,5.22-9.32,12.56-9.32,21.99v87.23c0,17.4,5.71,29.58,17.15,36.53l79.02,50.69c22.37,13.92,33.55,35.3,33.55,64.12v102.88c0,24.86-8.7,44.24-26.09,58.15-17.4,13.91-40.39,20.87-68.96,20.87-28.59,0-51.57-6.34-68.96-19.01-17.4-12.67-26.09-29.19-26.09-49.58v-92.44c0-8.95,6.45-15.16,19.38-18.64,6.95-1.98,13.91-2.98,20.87-2.98s13.91.75,20.88,2.24c-1.49,11.93-2.24,24.6-2.24,38.02v63.37c0,8.95,3.47,16.16,10.44,21.62,6.95,5.47,15.65,8.2,26.09,8.2s19.01-2.73,25.72-8.2c6.71-5.46,10.06-12.67,10.06-21.62v-84.24c0-19.38-6.71-33.29-20.13-41.75l-79.02-51.44c-20.39-12.92-30.57-34.04-30.57-63.37Z"/>
    <path class="cls-2" d="m1000.24,583.24c0-14.91-2.24-30.06-6.71-45.48,14.91-7.94,30.81-11.93,47.71-11.93,9.94,0,14.91,3.73,14.91,11.18v155.07c15.4-12.92,32.3-19.38,50.7-19.38,18.38,0,33.42,6.22,45.1,18.64,11.67,12.43,17.52,30.08,17.52,52.93v239.31c0,10.44,1.86,17.89,5.59,22.37,3.73,4.47,10.81,6.71,21.25,6.71.49,12.93-2.87,22.87-10.07,29.82-7.21,6.95-17.78,10.44-31.68,10.44-13.92,0-24.23-4.23-30.94-12.67-6.71-8.45-10.06-22.37-10.06-41.75v-249.75c0-16.4-8.46-24.6-25.35-24.6-13.92,0-24.6,7.71-32.06,23.11v237.08c0,23.86,1.74,43.74,5.22,59.64-14.91,2.98-31.07,4.47-48.46,4.47-8.46,0-12.67-3.73-12.67-11.18v-454.02Z"/>
    <path class="cls-2" d="m1205.43,937.35v-225.15c0-24.85,7.7-44.23,23.11-58.15,15.4-13.91,36.27-20.87,62.62-20.87,26.34,0,46.84,6.47,61.5,19.38,14.65,12.93,21.99,31.81,21.99,56.66v225.15c0,24.86-7.83,44.24-23.48,58.15-15.66,13.91-36.66,20.88-63,20.88-26.35,0-46.72-6.47-61.13-19.38-14.42-12.92-21.62-31.8-21.62-56.66Zm55.91-228.13v228.13c0,8.46,2.73,15.54,8.2,21.25,5.46,5.72,12.3,8.57,20.5,8.57s15.03-2.85,20.5-8.57c5.46-5.71,8.2-12.79,8.2-21.25v-228.13c0-8.45-2.74-15.53-8.2-21.25-5.47-5.71-12.3-8.57-20.5-8.57-8.2,0-15.04,2.87-20.5,8.57-5.48,5.72-8.2,12.8-8.2,21.25Z"/>
    <path class="cls-2" d="m1468.77,966.49v59.64s5.22,49.2,5.22,49.2c-13.42,5.46-28.83,8.2-46.22,8.2-9.95,0-14.91-3.73-14.91-11.18v-409.29c0-10.44-1.86-17.89-5.59-22.36-3.73-4.47-10.81-6.71-21.25-6.71-.5-12.92,2.85-22.85,10.06-29.82,7.2-6.95,18.88-10.44,35.04-10.44,16.14,0,27.46,7.71,33.92,23.11,15.4-15.4,32.8-23.11,52.19-23.11,19.38,0,35.04,6.59,46.97,19.76,11.93,13.17,17.89,31.94,17.89,56.29v217.69c0,24.86-7.71,44.24-23.11,58.15-15.41,13.92-36.29,20.87-62.62,20.87h-27.58Zm0-47.71h29.08c8.44,0,15.28-2.61,20.5-7.83,5.22-5.22,7.83-12.04,7.83-20.5v-219.93c0-17.39-7.21-26.09-21.62-26.09-7.46,0-14.54,2.87-21.25,8.57-6.71,5.72-11.56,11.81-14.54,18.27v247.51Z"/>
  </g>
  <g id="Winter">
    <path class="cls-2" d="m767.88,210.27c-8.96,3.87-17.15,9.52-24.58,16.96-7.43,7.44-14.23,15.66-20.4,24.67-6.17,9.01-11.72,18.28-16.66,27.8-4.94,9.53-9.38,18.41-13.33,26.64-3.83,7.65-7.74,16.17-11.73,25.57-3.99,9.4-7.79,18.83-11.38,28.27-3.6,9.45-6.75,18.65-9.44,27.59-2.7,8.95-4.71,16.88-6.02,23.81-1.32,6.93-1.72,12.39-1.2,16.38.52,3.99,2.4,5.87,5.66,5.64,4.39-.38,8.73-2.25,13.03-5.61,4.29-3.36,8.41-7.32,12.36-11.89,3.94-4.57,7.71-9.35,11.31-14.36,3.6-5,6.8-9.33,9.61-12.98.02-5.79.51-11.65,1.48-17.57.97-5.92,2.19-11.73,3.67-17.42,1.48-5.69,3.16-11.32,5.04-16.88,1.88-5.56,3.67-10.76,5.35-15.62.98-2.83,2.79-7.5,5.41-14.03,2.63-6.52,5.78-13.79,9.47-21.8,3.69-8.01,7.8-16.08,12.35-24.2,4.54-8.12,9.3-15.3,14.28-21.56,4.98-6.25,10.02-10.91,15.12-13.99,5.1-3.08,10.02-3.48,14.76-1.2,3.5,1.67,4.89,5.69,4.18,12.06-.72,6.37-2.77,13.97-6.15,22.81-3.39,8.84-7.69,18.43-12.91,28.76-5.22,10.34-10.49,20.29-15.81,29.87-5.32,9.58-10.33,18.19-15.03,25.85-4.7,7.66-8.25,13.38-10.65,17.17-1.9,4.69-3.48,9.97-4.75,15.83-1.26,5.86-2.21,11.58-2.83,17.17-.63,5.59-.82,10.78-.58,15.57.23,4.79.92,8.57,2.05,11.32,1.13,2.75,2.71,4.09,4.72,4.02,2.02-.07,4.59-2.15,7.73-6.22,7.41-9.85,14.15-20.71,20.23-32.61,6.08-11.89,11.85-24.28,17.32-37.16,5.47-12.88,10.79-25.78,15.96-38.72,5.17-12.93,10.36-25.34,15.57-37.22,2.25-4.93,5.15-11.19,8.7-18.8,3.55-7.6,7.59-15.47,12.13-23.59,4.54-8.12,9.61-15.92,15.2-23.41,5.59-7.49,11.53-13.76,17.82-18.83,6.29-5.06,12.97-8.3,20.02-9.7,7.06-1.4,14.33-.08,21.8,3.97,2.69,1.39,4.11,2.65,4.26,3.79.15,1.14-.35,2.17-1.48,3.09-1.14.92-2.66,1.79-4.58,2.62s-3.6,1.63-5.05,2.39c-5.23,2.81-10.38,6.67-15.43,11.57-5.06,4.91-9.92,10.27-14.56,16.09-10.57,13.74-20.23,28.12-28.99,43.17-8.76,15.04-17.36,30.17-25.81,45.36-8.59,15.6-16.92,31.36-24.98,47.28-8.06,15.92-16.72,31.43-25.95,46.54-1.75,2.93-3.84,6.48-6.29,10.67-2.45,4.18-5.23,8.07-8.33,11.66-3.11,3.59-6.54,6.5-10.31,8.73s-7.84,2.85-12.21,1.88c-3.19-.74-5.94-2.27-8.27-4.57-2.33-2.3-4.32-4.99-5.97-8.06-1.66-3.07-2.98-6.23-3.99-9.47-1-3.25-1.77-6.19-2.31-8.82-4.6,6.2-9.24,12.07-13.93,17.6-4.69,5.54-9.39,10.2-14.11,14s-9.49,6.49-14.3,8.09c-4.82,1.59-9.67,1.35-14.58-.71-7.33-2.91-12.2-8.07-14.62-15.48-2.41-7.41-3.24-15.99-2.48-25.75.76-9.75,2.79-20.1,6.09-31.06,3.3-10.95,6.95-21.51,10.94-31.69,3.98-10.17,8-19.34,12.06-27.49,4.05-8.15,7.25-14.41,9.58-18.77,5.46-9.98,11.89-20.67,19.29-32.05,7.4-11.39,15.67-22.03,24.81-31.91l-43.26,19.25c-2.96-3.47-6.25-6.43-9.84-8.86-3.6-2.43-7.6-4.22-12-5.39-4-1.02-8.41-1.51-13.22-1.47-4.82.05-9.7,1.17-14.63,3.35-4.77,1.97-9.25,4.97-13.46,8.99-4.21,4.02-7.31,8.77-9.3,14.24-2.04,5.1-3.2,10.7-3.46,16.82-.27,6.12.99,11.7,3.77,16.74,1.27,2.35,2.92,4.25,4.94,5.73,2.03,1.47,4.14,2.55,6.36,3.23,3.99,1.03,7.94.9,11.83-.38,3.89-1.28,6.78-3.58,8.66-6.92,1.44-2.31,2.27-4.83,2.49-7.57.22-2.73.08-5.32-.43-7.76,4.17-2.09,7.9-2.33,11.2-.73,3.3,1.6,5.45,4.84,6.48,9.73.63,3.39.48,6.7-.45,9.91-.93,3.21-2.44,6.11-4.52,8.7-2.08,2.59-4.55,4.79-7.4,6.61-2.85,1.82-5.76,3.21-8.72,4.18-3.73,1.06-7.64,1.38-11.75.95-4.11-.43-8.01-1.47-11.7-3.11-8.26-4.14-14.01-10.05-17.23-17.74-3.22-7.69-4.52-15.82-3.9-24.4.62-8.58,2.87-16.88,6.75-24.92,3.88-8.04,8.69-14.45,14.44-19.26,6.1-5.04,12.67-8.69,19.72-10.97,7.04-2.27,14.19-3.34,21.45-3.23,7.26.12,14.42,1.41,21.5,3.86,7.08,2.46,13.79,5.78,20.13,9.98l74.63-29.7,3.5,9.1Zm18.29,22.53c-2.24-.87-5.03,1.43-8.37,6.88-3.34,5.46-6.97,12.88-10.86,22.27-3.9,9.39-7.86,20.14-11.88,32.25-4.03,12.11-7.83,24.39-11.43,36.83,5.04-8.77,9.97-17.61,14.79-26.55,4.82-8.93,9.43-18.03,13.83-27.29,1.5-3.28,3.29-7.33,5.37-12.14,2.08-4.8,3.97-9.54,5.68-14.21,1.71-4.66,2.92-8.73,3.62-12.2.71-3.47.45-5.42-.76-5.84Z"/>
    <path class="cls-2" d="m817.3,360.5l1.09-2.33,27.17-61.88,23.55-.59-27.97,64.2c-3.09,6.78-5.02,11.86-5.79,15.23-.78,3.37.17,5.02,2.86,4.95,3.83-.1,7.86-3.31,12.11-9.64,4.25-6.33,8.72-14.92,13.43-25.77l6.78,6.72c-6.52,14.92-13.31,26.53-20.38,34.85-7.07,8.32-14.91,12.59-23.52,12.8-8.04.2-13.01-3.02-14.9-9.68-1.89-6.66-.02-16.28,5.59-28.87Zm62.51-84.47c-.86,3.89-3.03,7.29-6.49,10.18-3.47,2.89-7.22,4.39-11.24,4.49-3.83.1-6.83-1.23-9.01-3.98-2.18-2.75-2.74-6.08-1.69-9.97.86-3.89,3.02-7.33,6.49-10.32,3.47-2.99,7.21-4.54,11.23-4.64,3.83-.1,6.78,1.28,8.87,4.13,2.08,2.85,2.69,6.22,1.83,10.11Z"/>
    <path class="cls-2" d="m944.12,346.09l6.44,7.05c-7.25,14.58-14.6,25.85-22.07,33.81-7.47,7.96-15.6,11.84-24.41,11.63-4.4-.1-7.87-1.24-10.4-3.41-2.54-2.17-3.69-5.74-3.48-10.71.21-4.97,2.18-11.48,5.93-19.54,3.73-8.05,9.66-17.91,17.8-29.6,4.36-6.02,7.49-11.07,9.42-15.15,1.91-4.07,1.82-6.13-.29-6.18-1.72-.04-4.59,1.76-8.6,5.4s-8.53,8.51-13.56,14.62c-5.03,6.11-10.33,13.21-15.89,21.31-5.56,8.11-10.73,16.51-15.54,25.2l-8.14,16.18-23.83-.57,50.65-99.92,23.26.55-12.96,25.55c7.47-8.25,14.52-14.49,21.13-18.74,6.61-4.25,12.5-6.31,17.67-6.19,2.49.06,4.63.78,6.41,2.16s3.03,3.27,3.74,5.68c.71,2.41.78,5.22.23,8.45-.56,3.23-1.93,6.63-4.12,10.21-7.18,12.05-12.98,21.78-17.36,29.22-4.39,7.44-7.64,13.23-9.75,17.37-2.11,4.15-3.23,6.94-3.36,8.37-.13,1.43.38,2.15,1.53,2.18,3.83.09,8.41-3.05,13.73-9.44,5.33-6.38,10.6-14.88,15.84-25.48Z"/>
    <path class="cls-2" d="m959.58,382.55c1.91.15,4.5-.45,7.78-1.82,3.28-1.36,6.8-3.39,10.58-6.06,3.77-2.67,7.55-6.02,11.33-10.04,3.78-4.02,7.13-8.59,10.04-13.74l6.03,7.4c-4.02,6.98-8.55,13.14-13.6,18.5-5.05,5.36-10.26,9.83-15.64,13.43-5.39,3.6-10.69,6.24-15.92,7.93-5.23,1.69-10.04,2.36-14.42,2-3.82-.31-7.13-1.44-9.96-3.4-2.82-1.96-4.76-4.61-5.84-7.96-1.07-3.35-1.17-7.44-.3-12.27.87-4.83,2.98-10.18,6.34-16.06l29.52-51.5-12.6-1.02,5.39-9.65,12.59,1.02,26.49-46.02,26.87-4.42-29.88,52.34,20.02,1.91-4.8,9.41-20.61-1.67-29.23,51.52c-3.79,6.42-5.43,11.33-4.94,14.73.49,3.4,2.07,5.21,4.75,5.43Z"/>
    <path class="cls-2" d="m1077.58,361.43l5.59,7.74c-6.36,8.2-13.44,15.29-21.23,21.26-7.79,5.97-15.68,10.53-23.65,13.67-7.97,3.14-15.63,4.64-22.95,4.49-7.33-.15-13.58-2.43-18.77-6.82-2.77-2.31-4.82-5.31-6.15-8.97-1.32-3.67-1.85-7.84-1.59-12.55.27-4.7,1.35-9.67,3.24-14.92,1.89-5.25,4.67-10.61,8.33-16.1,7.06-10.42,14.26-18.79,21.62-25.12,7.35-6.32,14.33-10.96,20.93-13.91,6.6-2.95,12.6-4.43,18.02-4.45,5.41-.02,9.71,1.06,12.89,3.24,2.63,1.92,4.55,4.45,5.75,7.62,1.2,3.17,1.64,6.66,1.3,10.48-.34,3.82-1.43,7.87-3.28,12.16-1.86,4.29-4.61,8.4-8.24,12.34-5.02,5.49-10.3,9.73-15.84,12.73-5.54,3-10.77,4.79-15.68,5.36-4.91.58-9.14.08-12.7-1.48-3.56-1.56-5.95-4.16-7.18-7.81-2.58,6.02-3.97,11.48-4.16,16.38-.2,4.9,1.48,8.47,5.03,10.71,2.82,1.94,6.77,2.73,11.85,2.38,5.07-.35,10.39-1.74,15.95-4.16,5.56-2.42,11.09-5.71,16.6-9.87,5.51-4.16,10.28-8.96,14.33-14.39Zm-22.33-20.8c5.67-4.62,9.58-9.15,11.75-13.59,2.16-4.43,2.55-7.23,1.17-8.39-2.07-1.83-4.91-2.23-8.54-1.19-3.62,1.05-7.48,3.02-11.56,5.93-4.08,2.91-8.15,6.5-12.23,10.77-4.08,4.27-7.59,8.71-10.56,13.32-1.32,2.53-1.27,4.22.16,5.1,1.42.88,3.63.99,6.62.34,2.99-.64,6.51-1.99,10.57-4.04,4.05-2.05,8.25-4.8,12.6-8.25Z"/>
    <path class="cls-2" d="m1131.35,372.51l5.13,8.05c-9.65,13.11-18.83,22.95-27.56,29.5-8.73,6.56-17.32,8.99-25.77,7.31-7.89-1.57-11.98-5.8-12.26-12.7-.28-6.89,3.61-15.87,11.68-26.96,2.7-3.75,5.1-6.99,7.21-9.69,2.1-2.7,4.04-5.1,5.83-7.18,1.78-2.09,3.5-4.08,5.15-6,1.65-1.91,3.49-4.04,5.52-6.37,1.54-1.84,2.45-3.76,2.76-5.75.3-1.99-.25-3.9-1.64-5.75l-26.46,35.72-5.41-8.11,27.14-36.17c-.87-3.49-.97-7.12-.31-10.9.65-3.77,2.48-7.31,5.48-10.62,3.26-3.64,6.65-5.45,10.17-5.44,3.51.02,6.22,1.09,8.14,3.23,1.92,2.14,2.64,4.87,2.17,8.2-.47,3.33-2.96,6.49-7.46,9.49-1.8,1.2-2.91,2.35-3.32,3.44-.41,1.09-.37,2.08.14,2.96.51.88,1.27,1.72,2.28,2.51,1.01.79,1.95,1.47,2.81,2.03,3.57,2.67,5.76,5.89,6.57,9.66.81,3.78.03,7.18-2.33,10.23l-21.06,29.19c-4.51,5.94-7.46,10.47-8.86,13.61-1.41,3.14-.89,4.95,1.55,5.44,3.75.75,8.4-1.5,13.94-6.74,5.53-5.24,11.79-12.63,18.77-22.17Z"/>
  </g>
  <g id="Snow_flakes" data-name="Snow flakes">
    <path class="cls-2" d="m609.71,359.18l-.57.07,4.28,1.76-.25.32-4.57-1.72.07.57.28-.04.32.25.76,1.35-.85.11-1.15-2.17-1.82-.63.26,1.99,1.93,1.49-.21.61-1.57-.95-.11-.85.38,5.16-.57.07-.67-5.13c-.17.22-.22.51-.17.89l-.99,1.29-.36-.53,1.2-1.89-.22-1.71-1.35.75-.52,2.68-.61-.21-.19-1.43-3.16,2.44-.36-.53,3.65-3.08-.57.07c.02.19-.06.3-.25.32l-1.46-.1-.07-.57,2.85-.37,1.31-1.04-1.53-.67-2.81.66-.07-.57,1.35-.75c.19-.02.39.05.61.21l.57-.07-4.93-2.25.25-.32,4.89,1.97c-.05-.38-.17-.56-.36-.53l-.32-.25-.28.04-.47-1.39.57-.07,1.44,2.13,1.53.67-.22-1.71-1.72-2.09.25-.32,1.29.99.04.28c.05.38.17.56.36.53l-.7-5.41.57-.07.99,5.38c.16-.21.24-.41.21-.61l-.32-.25,1.28-1.32.32.25-1.41,2.5.19,1.43,1.35-.76.52-2.67.89.17-.1,1.46,3.41-2.76.4.82-3.94,3.12.57-.07.25-.32,1.5.38.07.57-2.6.05-1.28,1.32,1.54.67,2.49-.9.36.53-1.64.79Z"/>
    <path class="cls-2" d="m603.03,361.2c.16-.21.23-.41.21-.61l-.78.68.57-.07Z"/>
    <path class="cls-2" d="m608.02,355.05c.02.19-.05.4-.21.61l.78-.68-.57.07Z"/>
    <path class="cls-2" d="m649.79,464.6c1.65,2.29,2.19,3.48,1.62,3.55-.33.43-1.29-.22-2.86-1.94l-2.84,2.69,4,1.8-.46.93-5.1-1.36-2.3,2.33,2.82,1.66,4.87-2.66.36.53-3.12,2.72-.61-.21-.57.07,4,1.8c1.08-2.07,1.72-3.12,1.91-3.14.64.49.53,1.86-.34,4.1-1.25,2.28-2.07,3.36-2.48,3.22-.02-.19-.03-.58,0-1.16.02-.58.25-1.39.7-2.41l-4-1.8c.07.57.2.84.4.82l.28-.04.56,4.27-1.06.72-3.96-1.51-.04-.29c-.05-.38-.17-.56-.36-.53l.56,4.27c.95-.12,1.76-.18,2.44-.17.68,0,1.04.2,1.09.58.07.57-1.13,1.02-3.59,1.34-2.47.32-3.74.2-3.81-.37-.07-.57.93-.99,3.02-1.26l-.56-4.27c-.38.05-.55.26-.5.64.02.19.13.27.32.25l-3.44,2.48-.32-.25-.57.07-.56-4.27.28-.04c.16-.22.22-.51.17-.89l-3.37,3.05c1.55,1.54,2.07,2.53,1.55,2.98-.55.26-1.62-.56-3.22-2.48-1.55-1.54-2.19-2.71-1.91-3.52.76-.1,1.72.64,2.9,2.23l3.37-3.05c-.19.02-.37.14-.53.36-.19.02-.37.14-.53.36l-3.68-1.55.17-.89,5.35,1.04,2.3-2.33-2.78-1.38-4.87,2.66-.11-.85,2.87-2.4c.21.16.41.23.61.21l1.14-.15c-.38.05-.68-.01-.89-.17l-4.28-1.76c-.28.81-.63,1.48-1.04,2.02-.41.54-.82.73-1.23.6-.19.02-.19-.36,0-1.16.19-.8.5-1.71.95-2.73.25-1,.58-1.81.99-2.45.4-.63.8-.88,1.21-.74.43.33.2,1.52-.69,3.57l4.28,1.76c.62.3.94.55.97.74-.1-.76-.34-1.11-.72-1.06-.22-.17-.42-.23-.61-.21l-.23-4.02.53-.36.25-.32,3.92,1.23-.21.61c.07.57.3.83.68.78l-.67-5.13c-2.14-.11-3.23-.35-3.28-.73-.07-.57,1.12-1.01,3.59-1.34,2.47-.32,3.74-.2,3.81.37.05.38-.25.66-.9.84-.66.18-1.44.43-2.36.74l.59,4.56-.21.61c.57-.07.82-.4.74-.97l-.28.04-.07-.57,3.48-2.19.32.25.28-.04.81,3.95-.57.07c-.31.62-.35,1.01-.14,1.18l.49-.64,3.69-2.8c-1.39-1.75-1.92-2.84-1.59-3.27.16-.22,1.23.51,3.18,2.19Z"/>
    <polygon class="cls-2" points="634.59 465.71 636.07 470.44 638.78 471.25 638.66 468.08 634.59 465.71"/>
    <polygon class="cls-2" points="636.88 481.06 639.92 477.76 639.23 474.67 636.85 476.43 636.88 481.06"/>
    <polygon class="cls-2" points="640.49 471.03 643.16 469.23 643.17 464.89 640.09 467.89 640.49 471.03"/>
    <polygon class="cls-2" points="641.35 477.58 645.46 480.23 644.26 475.46 640.94 474.44 641.35 477.58"/>
    <path class="cls-2" d="m644.37,469.65c.43.33.81.28,1.14-.15l-.04-.28-.25.32-.85.11Z"/>
    <path class="cls-2" d="m915.9,264.68c.37.4.69.93.97,1.6.27.68.2,1.3-.19,1.86-.8,1.32-1.96,1.58-3.47.78-.38-.2-.66-.59-.83-1.17-.18-.58-.26-1.06-.25-1.44l-5.38-3.29-.59.27c.37.39.66.59.85.6l3.91,4.98-1.44.25-3.9-5.27c-.99,1.13-2.35,1.86-4.08,2.2l2.44,6.09-.88.84-2.45-5.8c.2-.19.3-.47.31-.85v-.29s-.57-.01-.57-.01l-.17,6.89c1.15.03,1.71.81,1.67,2.34-.04,1.72-.83,2.57-2.36,2.53-1.53-.04-2.27-.91-2.23-2.64.03-1.15.62-1.9,1.78-2.26l-.13-6.9h-.57s0,.27,0,.27c0,.38.08.67.27.87l-2.73,5.68-.84-.88,2.73-5.97c-.96-.21-2.18-.91-3.69-2.1l-3.86,5.08-1.43-.04,4.15-5.36h.58c0-.37-.18-.57-.57-.57l-5.53,3.03c.55,1.16.24,2.12-.93,2.85-1.37.93-2.51.71-3.43-.66-.93-1.36-.61-2.6.95-3.71.59-.37,1.53-.15,2.86.64l5.54-3.31-.28-.58c-.38-.01-.58.18-.59.56l-6.34.71.31-1.14,6.34-.71c-.35-1.54-.51-2.5-.5-2.89,0-.38.06-.76.17-1.15.11-.38.16-.76.17-1.14l-6.01-.72-.26-1.15,6.3.72c0,.39.08.58.28.58l.3-.57-5.94-3.88c-.98.94-1.94,1.01-2.87.22-1.52-.8-1.78-1.86-.78-3.18.8-1.51,1.86-1.77,3.18-.79,1.13.6,1.49,1.57,1.08,2.9l6.24,3.31v-.58s-4.17-4.98-4.17-4.98l1.17-.55,3.61,5.26c1.17-1.12,2.53-1.95,4.08-2.49l-2.16-5.51.88-.84,2.44,6.09c-.19,0-.29.09-.3.28.2-.18.39-.28.59-.27l.45-6.88c-1.14-.22-1.7-1-1.67-2.34.04-1.72.83-2.57,2.36-2.53s2.28.92,2.24,2.64c-.04,1.34-.63,2.1-1.78,2.26l-.16,6.89c.19,0,.33.06.42.15.09.1.24.15.43.15l-.28-.29,2.44-5.97.84.88-2.14,5.41c.57.4,1.17.75,1.84,1.05.66.3,1.18.65,1.55,1.04l3.56-4.8,1.14.31-3.57,5.09h-.58c0,.37.18.66.56.86l5.83-3.6c-.35-1.16-.04-2.2.94-3.14,1.55-.73,2.69-.41,3.43.94,1.11,1.56.89,2.71-.66,3.43-1.36.54-2.41.42-3.15-.36l-5.84,3.88c0,.19.08.29.28.29l.29-.28,6.34-.71-.32,1.14-6.34,1c.18.39.26,1.16.23,2.3-.01.39-.02.77-.03,1.15,0,.38-.12.76-.32,1.14l6.31.73.54,1.45-6.58-1.02c0-.19-.09-.38-.28-.58l-.3.57,5.38,3.58c.78-1.13,1.84-1.29,3.17-.5Z"/>
    <path class="cls-2" d="m894.93,433.2c1.61,1.71,2.19,2.63,1.73,2.75-.23.39-1.08-.04-2.57-1.29l-2.04,2.53,3.5,1.04-.27.82-4.36-.56-1.64,2.17,2.51,1.06,3.72-2.73.36.4-2.28,2.59-.52-.11-.46.12,3.49,1.04c.66-1.83,1.07-2.77,1.23-2.81.59.34.64,1.47.18,3.42-.26.89-.51,1.62-.78,2.19s-.56.81-.92.74c-.04-.16-.08-.47-.13-.96-.05-.48.05-1.17.31-2.06l-3.5-1.04c.12.46.26.67.42.63l.23-.06.94,3.46-.8.71-3.43-.81-.06-.23c-.09-.31-.2-.44-.36-.4l.93,3.46c.77-.21,1.43-.35,1.99-.41.56-.07.88.05.96.36.12.46-.81.96-2.81,1.5-2,.54-3.07.58-3.19.12s.66-.92,2.35-1.38l-.93-3.46c-.31.08-.42.28-.34.59.04.15.14.21.29.17l-2.56,2.42-.3-.17-.46.12-.93-3.46.23-.06c.11-.2.13-.45.05-.76l-2.44,2.89c1.45,1.1,1.98,1.86,1.61,2.29-.42.28-1.4-.28-2.93-1.69-1.45-1.09-2.11-1.99-1.96-2.69.61-.17,1.49.34,2.64,1.52l2.44-2.89c-.15.04-.28.16-.4.36-.15.04-.29.16-.4.36l-3.21-.87.04-.75,4.53.27,1.64-2.18-2.45-.83-3.72,2.74-.19-.69,2.1-2.3c.19.11.37.15.53.1l.92-.25c-.31.08-.56.07-.75-.04l-3.73-.98c-.14.7-.35,1.29-.63,1.78-.29.49-.6.69-.95.63-.15.04-.2-.28-.13-.96.06-.68.22-1.47.48-2.36.1-.85.28-1.56.54-2.13.26-.56.56-.81.92-.74.39.22.33,1.23-.18,3.02l3.73.98c.54.18.84.35.88.51-.16-.62-.4-.88-.71-.8-.2-.11-.37-.15-.53-.1l-.64-3.29.4-.36.17-.29,3.38.58-.11.53c.12.46.34.65.65.57l-1.12-4.15c-1.78.15-2.7.07-2.79-.24-.12-.46.81-.96,2.81-1.5s3.07-.58,3.19-.12c.08.31-.14.57-.65.8-.52.22-1.14.51-1.87.88l1,3.69-.11.52c.46-.12.63-.42.51-.88l-.23.06-.12-.46,2.63-2.19.29.17.23-.06,1.1,3.17-.46.12c-.19.55-.18.87.02.99l.34-.59,2.73-2.72c-1.34-1.29-1.9-2.13-1.67-2.52.11-.2,1.07.29,2.87,1.45Z"/>
    <path class="cls-2" d="m892.22,257.8c-.03,1.15.04,2.11.22,2.88l1.74-.53,2.92-1.94-2.82-2.37-1.72-.04c-.2.38-.31,1.05-.33,2Z"/>
    <path class="cls-2" d="m893.72,255.25l-.57-.59c-.39.18-.58.37-.59.56.38.2.76.21,1.15.03Z"/>
    <polygon class="cls-2" points="886.1 448.21 888.24 445.16 887.33 442.68 885.56 444.4 886.1 448.21"/>
    <polygon class="cls-2" points="882.51 435.81 884.26 439.55 886.58 439.91 886.13 437.31 882.51 435.81"/>
    <path class="cls-2" d="m894.35,252.96l-.58.27.85.6c-.19-.19-.28-.39-.28-.58v-.29Z"/>
    <polygon class="cls-2" points="894.12 262.44 893.83 262.43 894.11 262.73 894.12 262.44"/>
    <path class="cls-2" d="m898.15,250.18c-.96.17-2.22,1-3.79,2.5l1.12,1.46,3.12,1.51.37-3.44-.81-2.03Z"/>
    <path class="cls-2" d="m894.39,263.31c.37.4.93.74,1.7,1.05.76.3,1.42.66,1.98,1.05l.61-1.42-.2-3.45-3.19,1.36-.89,1.41Z"/>
    <polygon class="cls-2" points="889.4 444.85 893.08 446.58 891.56 442.78 888.71 442.31 889.4 444.85"/>
    <polygon class="cls-2" points="887.97 439.54 889.97 437.76 889.5 434.17 887.28 437 887.97 439.54"/>
    <path class="cls-2" d="m899.27,251.36l.03-1.15h-.58c0,.37.18.76.55,1.15Z"/>
    <path class="cls-2" d="m901.52,265.49c.59-.37,1.21-.69,1.89-.96.67-.27,1.31-.69,1.89-1.25l-.83-1.17-3.4-1.8-.37,3.73.83,1.46Z"/>
    <path class="cls-2" d="m901.59,250.26l-.86-.02-.03,1.15c.59-.56.88-.94.89-1.13Z"/>
    <path class="cls-2" d="m905.27,252.65c-.38-.39-.85-.83-1.41-1.33-.57-.49-1.23-.75-1.99-.76l-.9,1.7.2,3.45,3.2-1.65.9-1.41Z"/>
    <path class="cls-2" d="m891.02,437.97c.39.22.7.14.92-.25l-.06-.23-.17.29-.69.19Z"/>
    <path class="cls-2" d="m907.44,258.16c.03-1.15-.05-1.91-.23-2.3l-2.02.24-2.92,1.94,3.1,2.37,1.72.04c.2-.38.3-.76.32-1.14,0-.38.01-.76.02-1.15Z"/>
    <path class="cls-2" d="m905.24,254.09l.88-.55-.57-.59c-.2.19-.3.57-.31,1.14Z"/>
    <polygon class="cls-2" points="905.61 262.71 905.9 262.43 905.61 262.43 905.61 262.71"/>
    <polygon class="cls-2" points="906.93 255.27 906.95 254.7 906.07 255.26 906.93 255.27"/>
    <polygon class="cls-2" points="906.51 261.01 906.79 261.3 906.79 261.02 906.51 261.01"/>
    <path class="cls-2" d="m974.87,418.08c1.13,2.59,1.42,3.86.84,3.81-.42.35-1.21-.49-2.39-2.5l-3.33,2.04,3.54,2.59-.64.81-4.7-2.4-2.74,1.8,2.42,2.21,5.32-1.59.24.6-3.62,2.01-.55-.33-.57-.05,3.54,2.59c1.49-1.8,2.33-2.69,2.52-2.68.53.62.13,1.93-1.18,3.94-.65.91-1.24,1.63-1.76,2.16-.52.53-.97.69-1.33.47.02-.19.09-.57.24-1.13.14-.57.54-1.3,1.19-2.21l-3.54-2.59c-.05.57.02.87.22.88l.29.02-.35,4.29-1.19.48-3.56-2.31.02-.29c.03-.38-.05-.58-.24-.6l-.35,4.29c.95.08,1.76.19,2.42.34.66.15.97.41.94.8-.05.57-1.31.76-3.79.56-2.48-.2-3.7-.59-3.66-1.16.05-.57,1.12-.78,3.22-.6l.35-4.29c-.38-.03-.59.14-.62.53-.01.19.07.29.26.31l-3.88,1.7-.26-.31-.57-.05.35-4.29.29.02c.2-.18.32-.46.36-.84l-3.93,2.28c1.19,1.82,1.49,2.9.89,3.24-.59.14-1.47-.89-2.63-3.09-1.2-1.83-1.58-3.11-1.13-3.84.76.06,1.55.99,2.37,2.78l3.93-2.28c-.19-.02-.39.06-.6.24-.19-.02-.39.06-.6.24l-3.27-2.28.36-.84,5.01,2.13,2.74-1.8-2.44-1.92-5.32,1.59.07-.86,3.31-1.75c.17.2.36.32.55.33l1.14.09c-.38-.03-.66-.15-.83-.35l-3.82-2.62c-.44.73-.93,1.32-1.44,1.76-.52.44-.96.54-1.32.32-.19-.02-.11-.4.24-1.13.35-.74.85-1.56,1.5-2.47.46-.93.95-1.65,1.47-2.19.52-.53.96-.69,1.33-.47.35.41-.12,1.53-1.42,3.34l3.82,2.62.81.64c.05-.57-.12-.87-.5-.9-.18-.21-.36-.32-.55-.33l.61-3.99.6-.24.31-.26,3.58,2.02-.33.55c-.05.57.12.87.5.9l.42-5.15c-2.07-.55-3.09-1.02-3.05-1.4.05-.57,1.31-.76,3.79-.56,2.48.2,3.7.59,3.65,1.16-.03.38-.38.59-1.06.64-.68.04-1.5.12-2.47.23l-.37,4.58-.34.55c.57.05.88-.22.93-.79l-.29-.02.05-.57,3.86-1.42.26.31.29.02-.04,4.03-.57-.05c-.43.54-.55.91-.38,1.12l.62-.53,4.19-1.97c-.99-2-1.28-3.18-.87-3.53.2-.18,1.09.76,2.66,2.81Z"/>
    <polygon class="cls-2" points="958.8 431.47 962.47 428.89 962.43 425.71 959.74 426.94 958.8 431.47"/>
    <polygon class="cls-2" points="959.76 415.99 960.23 420.93 962.71 422.28 963.25 419.15 959.76 415.99"/>
    <polygon class="cls-2" points="963.9 429 967.36 432.45 967.19 427.54 964.15 425.85 963.9 429"/>
    <path class="cls-2" d="m997.72,235.21c.35.42.64.97.87,1.66.23.69.13,1.31-.29,1.85-.87,1.28-2.04,1.47-3.5.58-.37-.22-.63-.63-.77-1.21-.15-.59-.2-1.07-.17-1.46l-5.19-3.59-.59.24c.35.41.62.63.81.64l3.61,5.19-1.46.17-3.59-5.48c-1.05,1.07-2.45,1.73-4.2,1.97l2.09,6.22-.93.79-2.11-5.93c.2-.17.32-.45.35-.84l.02-.29-.57-.05-.55,6.87c1.14.09,1.65.9,1.53,2.43-.14,1.72-.97,2.51-2.5,2.39-1.53-.12-2.22-1.04-2.08-2.76.09-1.14.72-1.86,1.9-2.15l.27-6.89-.58-.05-.02.29c-.03.38.04.68.22.88l-3.04,5.52-.79-.93,3.06-5.8c-.94-.26-2.13-1.04-3.56-2.3l-4.14,4.85-1.43-.12,4.45-5.12.57.05c.03-.38-.15-.59-.53-.62l-5.7,2.71c.48,1.19.12,2.12-1.09,2.79-1.42.85-2.55.56-3.39-.85-.85-1.41-.46-2.63,1.16-3.65.6-.34,1.54-.07,2.82.8l5.72-3-.24-.6c-.38-.03-.59.15-.62.53l-6.37.35.38-1.12,6.37-.35c-.26-1.56-.37-2.53-.34-2.91.03-.38.11-.76.24-1.13.12-.37.2-.75.24-1.13l-5.96-1.06-.19-1.17,6.25,1.08c-.03.38.05.58.24.6l.33-.55-5.71-4.21c-1.03.88-2,.9-2.89.05-1.47-.88-1.67-1.96-.6-3.22.88-1.46,1.96-1.67,3.22-.6,1.1.67,1.4,1.65.91,2.96l6.04,3.66.05-.57-3.9-5.21,1.19-.48,3.31,5.45c1.24-1.05,2.64-1.8,4.22-2.25l-1.85-5.62.93-.79,2.09,6.22c-.19-.02-.3.08-.31.26.2-.17.4-.26.6-.24l.84-6.85c-1.13-.28-1.64-1.09-1.53-2.43.14-1.72.97-2.52,2.5-2.39,1.53.12,2.22,1.05,2.08,2.76-.11,1.34-.74,2.06-1.9,2.15l-.55,6.87c.19.01.33.08.42.18.09.11.23.16.42.18l-.26-.31,2.78-5.83.79.93-2.44,5.28c.54.43,1.13.81,1.78,1.15.64.34,1.14.72,1.49,1.13l3.83-4.59,1.12.38-3.85,4.88-.57-.05c-.03.38.13.69.5.91l6.03-3.26c-.29-1.18.08-2.2,1.11-3.08,1.59-.64,2.71-.26,3.37,1.14,1.02,1.62.74,2.75-.85,3.39-1.38.46-2.43.29-3.13-.54l-6.05,3.55c-.01.19.07.29.26.31l.31-.26,6.37-.35-.38,1.12-6.39.64c.16.4.19,1.17.1,2.31-.03.38-.06.76-.09,1.14-.03.38-.16.76-.38,1.12l6.25,1.08.46,1.48-6.52-1.39c.02-.19-.07-.39-.24-.6l-.34.55,5.16,3.87c.85-1.08,1.92-1.18,3.2-.32Z"/>
    <polygon class="cls-2" points="964.43 422.42 967.41 421.22 968.33 416.97 964.68 419.27 964.43 422.42"/>
    <path class="cls-2" d="m968.51,421.88c.35.41.73.44,1.14.09l.02-.29-.31.26-.86-.07Z"/>
    <path class="cls-2" d="m974.47,226.99c-.1,1.14-.08,2.11.05,2.89l1.77-.43,3.02-1.77-2.68-2.52-1.72-.14c-.23.37-.37,1.03-.45,1.98Z"/>
    <path class="cls-2" d="m976.11,224.53l-.53-.62c-.4.16-.6.34-.62.53.36.22.75.25,1.14.09Z"/>
    <polygon class="cls-2" points="976.1 231.73 975.82 231.71 976.08 232.02 976.1 231.73"/>
    <path class="cls-2" d="m976.86,222.29l-.59.24.81.64c-.18-.2-.26-.4-.24-.6l.02-.29Z"/>
    <path class="cls-2" d="m976.32,232.62c.35.41.89.79,1.64,1.14.74.35,1.38.74,1.92,1.16l.69-1.38v-3.46s-3.27,1.18-3.27,1.18l-.97,1.36Z"/>
    <path class="cls-2" d="m980.82,219.73c-.97.11-2.28.87-3.93,2.28l1.03,1.52,3.03,1.69.57-3.41-.7-2.07Z"/>
    <path class="cls-2" d="m981.87,220.96l.09-1.14-.57-.05c-.03.38.13.78.48,1.19Z"/>
    <path class="cls-2" d="m983.31,235.2c.6-.33,1.25-.62,1.94-.85.69-.23,1.35-.61,1.97-1.14l-.77-1.21-3.3-2-.59,3.7.74,1.5Z"/>
    <path class="cls-2" d="m984.26,220l-.86-.07-.09,1.15c.62-.53.94-.88.95-1.08Z"/>
    <path class="cls-2" d="m987.79,222.59c-.35-.41-.79-.88-1.33-1.4-.53-.52-1.19-.82-1.95-.88l-1,1.65v3.46s3.3-1.46,3.3-1.46l.97-1.36Z"/>
    <path class="cls-2" d="m989.64,228.22c.09-1.14.06-1.91-.1-2.31l-2.03.13-3.02,1.77,2.96,2.55,1.72.14c.22-.36.35-.74.38-1.12.03-.38.06-.76.09-1.15Z"/>
    <polygon class="cls-2" points="987.55 232.66 987.86 232.4 987.58 232.38 987.55 232.66"/>
    <path class="cls-2" d="m987.67,224.03l.91-.5-.53-.62c-.21.18-.34.55-.38,1.12Z"/>
    <polygon class="cls-2" points="989.3 225.31 989.35 224.74 988.44 225.24 989.3 225.31"/>
    <polygon class="cls-2" points="988.55 231.01 988.82 231.32 988.84 231.04 988.55 231.01"/>
    <path class="cls-2" d="m1041,457.54c.32.43.59,1,.78,1.7.19.7.06,1.31-.4,1.83-.95,1.22-2.12,1.35-3.54.38-.35-.24-.59-.66-.69-1.26-.11-.6-.14-1.08-.09-1.46l-4.97-3.88-.61.2c.32.43.58.66.77.69l3.31,5.39-1.46.09-3.27-5.68c-1.11,1-2.54,1.58-4.3,1.72l1.73,6.33-.97.73-1.77-6.05c.22-.17.35-.44.4-.81l.04-.28-.57-.08-.95,6.83c1.14.16,1.6.99,1.39,2.51-.24,1.71-1.12,2.45-2.63,2.24-1.52-.21-2.16-1.17-1.92-2.88.16-1.14.83-1.82,2.02-2.04l.67-6.87-.57-.08-.04.28c-.05.38,0,.67.17.89l-3.35,5.33-.73-.97,3.39-5.62c-.93-.32-2.07-1.16-3.42-2.51l-4.41,4.61-1.42-.2,4.74-4.85.57.08c.05-.38-.11-.6-.49-.65l-5.84,2.38c.41,1.22,0,2.12-1.25,2.73-1.46.76-2.57.41-3.34-1.05-.77-1.46-.31-2.65,1.37-3.58.62-.3,1.54.02,2.77.97l5.88-2.66-.2-.61c-.38-.05-.6.11-.65.49l-6.37-.02.44-1.1,6.38.02c-.17-1.57-.23-2.55-.17-2.92.05-.38.15-.75.3-1.12.14-.37.25-.74.3-1.12l-5.89-1.4-.13-1.18,6.18,1.44c-.05.38.01.58.2.61l.36-.53-5.46-4.53c-1.08.81-2.04.78-2.89-.11-1.41-.97-1.55-2.06-.42-3.25.97-1.41,2.05-1.55,3.25-.42,1.06.73,1.3,1.73.74,3l5.82,4,.08-.57-3.59-5.43,1.21-.41,2.99,5.64c1.3-.98,2.74-1.65,4.34-2.01l-1.52-5.72.97-.73,1.73,6.33c-.19-.03-.3.05-.32.25.21-.17.42-.23.61-.2l1.24-6.79c-1.11-.35-1.58-1.19-1.39-2.51.24-1.71,1.11-2.45,2.63-2.24,1.52.21,2.15,1.17,1.92,2.88-.18,1.32-.86,2.01-2.02,2.04l-.95,6.83c.19.03.32.09.41.2.08.11.22.17.41.2l-.24-.32,3.11-5.66.73.97-2.74,5.13c.52.46,1.08.88,1.71,1.25.63.38,1.1.78,1.43,1.21l4.09-4.36,1.1.44-4.12,4.64-.57-.08c-.05.38.1.69.45.93l6.21-2.91c-.22-1.19.2-2.2,1.29-3.01,1.62-.55,2.72-.11,3.3,1.33.93,1.68.58,2.79-1.05,3.34-1.41.38-2.44.14-3.09-.72l-6.24,3.19c-.03.19.05.3.24.32l.32-.24,6.37.02-.44,1.1-6.42.27c.13.4.13,1.18-.03,2.31-.05.38-.11.76-.16,1.14-.05.38-.2.74-.44,1.1l6.18,1.44.37,1.5-6.42-1.77c.03-.19-.04-.4-.2-.61l-.36.53,4.93,4.17c.91-1.03,1.98-1.08,3.21-.13Z"/>
    <path class="cls-2" d="m1018.26,448c-.16,1.14-.19,2.1-.11,2.88l1.79-.33,3.12-1.59-2.53-2.67-1.71-.24c-.25.35-.43,1-.57,1.95Z"/>
    <path class="cls-2" d="m1020.04,445.64l-.49-.65c-.41.13-.62.3-.65.49.35.24.73.29,1.14.16Z"/>
    <polygon class="cls-2" points="1019.61 452.83 1019.33 452.79 1019.58 453.11 1019.61 452.83"/>
    <path class="cls-2" d="m1019.78,453.72c.32.43.85.84,1.57,1.23.72.39,1.33.81,1.85,1.27l.77-1.34.19-3.45-3.33.99-1.05,1.3Z"/>
    <path class="cls-2" d="m1020.92,443.44l-.61.2.77.69c-.17-.22-.23-.42-.2-.61l.04-.28Z"/>
    <path class="cls-2" d="m1025.01,441.11c-.78.08-1.49.32-2.13.72-.64.39-1.27.84-1.92,1.33l.94,1.58,2.93,1.86.76-3.37-.58-2.11Z"/>
    <path class="cls-2" d="m1026,442.41l.16-1.14-.57-.08c-.05.38.08.78.41,1.22Z"/>
    <path class="cls-2" d="m1026.61,456.7c.62-.3,1.28-.55,1.99-.74.7-.19,1.38-.53,2.03-1.02l-.7-1.26-3.17-2.18-.8,3.66.65,1.54Z"/>
    <path class="cls-2" d="m1031.81,444.38c-.33-.44-.74-.93-1.24-1.48-.5-.55-1.14-.88-1.89-.99l-1.09,1.59-.19,3.45,3.37-1.27,1.05-1.3Z"/>
    <path class="cls-2" d="m1028.43,441.58l-.85-.12-.16,1.14c.65-.49.99-.83,1.01-1.02Z"/>
    <path class="cls-2" d="m1033.34,450.1c.16-1.14.17-1.91.03-2.31h-2.03s-3.12,1.6-3.12,1.6l2.81,2.71,1.71.24c.24-.36.39-.72.44-1.1.05-.38.11-.76.16-1.14Z"/>
    <polygon class="cls-2" points="1030.99 454.41 1031.32 454.17 1031.03 454.13 1030.99 454.41"/>
    <path class="cls-2" d="m1031.61,445.8l.93-.45-.49-.65c-.22.16-.36.53-.44,1.1Z"/>
    <polygon class="cls-2" points="1032.09 452.82 1032.33 453.15 1032.37 452.86 1032.09 452.82"/>
    <polygon class="cls-2" points="1033.16 447.17 1033.24 446.6 1032.31 447.05 1033.16 447.17"/>
    <path class="cls-2" d="m1066.19,243.27c.98,2.65,1.19,3.94.62,3.86-.43.33-1.18-.55-2.24-2.63l-3.49,2.12,3.42,2.51-.69.78-4.56-2.67-2.84,1.64,2.28,2.35,5.4-1.28.2.61-3.73,1.8-.53-.36-.57-.08,3.38,2.79c1.59-1.71,2.48-2.56,2.67-2.53.49.65.02,1.94-1.41,3.86-.7.87-1.33,1.56-1.88,2.06-.55.5-1.01.63-1.36.39.02-.19.12-.56.3-1.12.17-.56.61-1.27,1.31-2.14l-3.38-2.79c-.08.57-.02.87.17.89l.28.04-.59,4.27-1.21.41-3.42-2.51.04-.28c.05-.38-.02-.58-.2-.61l-.59,4.27c.95.13,1.74.29,2.4.48.65.19.95.47.9.85-.08.57-1.36.68-3.82.34-2.47-.34-3.66-.8-3.58-1.37.08-.57,1.16-.71,3.25-.42l.59-4.27c-.38-.05-.59.11-.65.49-.03.19.05.3.24.32l-3.97,1.48-.25-.32-.57-.08.59-4.27.29.04c.21-.16.35-.43.4-.81l-4.05,2.04c1.09,1.89,1.32,2.99.7,3.29-.6.11-1.42-.97-2.45-3.24-1.09-1.89-1.39-3.19-.91-3.9.76.11,1.49,1.08,2.2,2.92l4.06-2.04c-.19-.03-.4.04-.61.2-.19-.03-.4.04-.61.2l-3.14-2.47.4-.81,4.88,2.42,2.84-1.64-2.32-2.06-5.4,1.28.12-.85,3.4-1.56c.16.22.34.34.53.36l1.14.16c-.38-.05-.65-.19-.81-.4l-3.67-2.83c-.49.71-1,1.27-1.54,1.67-.54.41-.99.49-1.34.25-.19-.03-.09-.4.3-1.12.39-.72.94-1.51,1.64-2.38.51-.89,1.04-1.59,1.6-2.1.55-.5,1-.63,1.36-.39.32.43-.21,1.52-1.61,3.26l3.67,2.83.77.69c.08-.57-.07-.88-.45-.93-.17-.21-.34-.34-.53-.36l.84-3.94.61-.21.32-.24,3.46,2.22-.36.53c-.08.57.07.88.45.93l.71-5.12c-2.04-.67-3.02-1.19-2.97-1.57.08-.57,1.35-.68,3.81-.34,2.47.34,3.66.8,3.58,1.37-.05.38-.42.57-1.09.57-.68,0-1.5.04-2.48.09l-.63,4.55-.36.53c.57.08.89-.17.97-.73l-.28-.04.08-.57,3.94-1.19.24.32.29.04-.27,4.02-.57-.08c-.46.52-.61.88-.44,1.1l.65-.49,4.3-1.72c-.88-2.05-1.1-3.24-.66-3.57.21-.16,1.05.82,2.49,2.96Z"/>
    <polygon class="cls-2" points="1049.38 255.71 1053.19 253.34 1053.34 250.18 1050.58 251.24 1049.38 255.71"/>
    <polygon class="cls-2" points="1051.23 240.31 1051.41 245.27 1053.81 246.76 1054.53 243.67 1051.23 240.31"/>
    <polygon class="cls-2" points="1054.61 253.54 1057.87 257.19 1057.98 252.27 1055.04 250.41 1054.61 253.54"/>
    <polygon class="cls-2" points="1055.52 247 1058.56 245.97 1059.72 241.79 1055.96 243.87 1055.52 247"/>
    <path class="cls-2" d="m1059.62,246.7c.32.43.7.49,1.14.16l.04-.28-.32.25-.85-.12Z"/>
    <path class="cls-2" d="m1091.5,434.31c.54,1.76.63,2.61.26,2.54-.29.19-.75-.41-1.36-1.8l-2.32,1.07,2.1,1.95-.48.48-2.87-1.91-1.91.96,1.4,1.62,3.56-.63.11.4-2.5,1.03-.33-.26-.37-.07,2.1,1.95c1.1-1.06,1.71-1.57,1.84-1.54.29.44-.06,1.26-1.06,2.46-.49.54-.93.96-1.3,1.27-.38.31-.68.37-.9.2.03-.12.1-.36.24-.72.13-.35.45-.8.94-1.34l-2.09-1.95c-.07.37-.05.56.07.59l.18.04-.55,2.76-.81.22-2.13-1.76.04-.18c.05-.25,0-.38-.11-.4l-.55,2.76c.61.12,1.12.25,1.54.4.41.15.6.34.55.59-.07.37-.91.39-2.5.07-1.59-.32-2.35-.66-2.28-1.03.07-.37.78-.42,2.13-.15l.55-2.76c-.25-.05-.39.05-.44.29-.02.12.02.2.15.22l-2.65.81-.15-.22-.37-.07.55-2.76.18.04c.15-.1.24-.27.29-.51l-2.72,1.18c.64,1.27.75,1.99.33,2.17-.39.05-.88-.69-1.47-2.2-.64-1.27-.79-2.13-.44-2.57.49.1.93.76,1.32,1.98l2.72-1.18c-.12-.03-.26.01-.4.11-.12-.02-.26.01-.4.11l-1.95-1.73.29-.51,3.09,1.76,1.91-.96-1.44-1.43-3.56.63.11-.55,2.28-.88c.1.15.21.23.33.26l.73.15c-.25-.05-.42-.15-.52-.29l-2.28-1.98c-.35.44-.7.78-1.06,1.03-.37.24-.66.28-.88.11-.12-.02-.04-.26.24-.72.28-.45.67-.95,1.16-1.49.37-.57.74-1,1.12-1.31.38-.31.68-.38.9-.2.2.29-.19.98-1.18,2.06l2.28,1.98c.32.32.47.54.44.66.1-.49.02-.76-.22-.81-.1-.15-.21-.23-.33-.26l.7-2.54.41-.11.22-.15,2.17,1.58-.26.33c-.07.37.01.58.26.62l.66-3.31c-1.3-.52-1.92-.89-1.87-1.14.07-.37.91-.39,2.5-.07s2.35.66,2.28,1.03c-.05.24-.29.35-.73.33-.44-.03-.98-.04-1.62-.04l-.59,2.94-.26.33c.37.07.59-.07.66-.44l-.18-.04.07-.37,2.61-.63.15.22.18.04-.33,2.61-.37-.07c-.32.32-.43.55-.33.7l.44-.29,2.87-.96c-.49-1.37-.59-2.16-.29-2.35.15-.1.65.57,1.51,2.02Z"/>
    <polygon class="cls-2" points="1080.07 441.78 1082.64 440.38 1082.87 438.32 1081.03 438.91 1080.07 441.78"/>
    <polygon class="cls-2" points="1081.87 431.82 1081.8 435.05 1083.31 436.12 1083.89 434.13 1081.87 431.82"/>
    <polygon class="cls-2" points="1083.56 440.56 1085.55 443.06 1085.81 439.86 1083.97 438.54 1083.56 440.56"/>
    <polygon class="cls-2" points="1084.41 436.34 1086.43 435.78 1087.35 433.1 1084.81 434.32 1084.41 436.34"/>
    <path class="cls-2" d="m1087.09,436.3c.2.29.44.34.73.15l.04-.18-.22.15-.55-.11Z"/>
    <path class="cls-2" d="m1134.12,283.73l-.56-.11,3.49,3.04-.34.22-3.78-3.1-.11.56.28.06.23.34.28,1.52-.84-.17-.4-2.42-1.52-1.18-.39,1.97,1.35,2.03-.4.51-1.18-1.41-1.12,4.17-.57-.11,1.01-5.07c-.23.15-.38.41-.45.79l-1.35.9-.17-.62,1.75-1.41.34-1.69-1.52.28-1.35,2.37-.51-.4.28-1.41-3.77,1.3-.17-.62,4.45-1.75-.56-.11c-.04.19-.15.26-.34.23l-1.35-.56.11-.56,2.82.56,1.58-.56-1.24-1.13-2.87-.28.11-.56,1.52-.28c.19.04.36.17.51.39l.56.11-3.94-3.72.34-.23,4,3.43c.07-.37.01-.58-.17-.62l-.23-.34-.28-.06v-1.46l.57.11.67,2.48,1.24,1.13.34-1.69-.96-2.53.34-.22.9,1.35-.06.28c-.08.38-.02.58.17.62l1.07-5.35.57.11-.79,5.41c.22-.15.36-.32.39-.51l-.22-.34,1.63-.85.23.34-2.14,1.92-.28,1.41,1.52-.28,1.35-2.37.79.45-.56,1.35,4.11-1.52.11.9-4.73,1.69.57.11.34-.23,1.3.85-.11.56-2.48-.79-1.64.84,1.24,1.13,2.65-.06.17.62-1.8.23Z"/>
    <path class="cls-2" d="m1127.14,283.51c.22-.15.35-.32.39-.51l-.96.4.57.11Z"/>
    <path class="cls-2" d="m1133.84,279.28c-.04.19-.17.36-.4.51l.96-.4-.57-.11Z"/>
  </g>
</svg>